<svg id="visual" viewBox="0 0 900 600" width="900" height="600" xmlns="http://www.w3.org/2000/svg" xmlns:xlink="http://www.w3.org/1999/xlink" version="1.1"><rect x="0" y="0" width="900" height="600" fill="#FFFFFF"></rect><path d="M0 472L15 467.3C30 462.7 60 453.3 90 451.3C120 449.3 150 454.7 180 439.2C210 423.7 240 387.3 270 382.8C300 378.3 330 405.7 360 422C390 438.3 420 443.7 450 440C480 436.3 510 423.7 540 424.7C570 425.7 600 440.3 630 437.5C660 434.7 690 414.3 720 403.5C750 392.7 780 391.3 810 394.5C840 397.7 870 405.3 885 409.2L900 413L900 601L885 601C870 601 840 601 810 601C780 601 750 601 720 601C690 601 660 601 630 601C600 601 570 601 540 601C510 601 480 601 450 601C420 601 390 601 360 601C330 601 300 601 270 601C240 601 210 601 180 601C150 601 120 601 90 601C60 601 30 601 15 601L0 601Z" fill="#03a9f4" stroke-linecap="round" stroke-linejoin="miter"></path></svg>