<svg id="visual" viewBox="0 0 900 600" width="900" height="600" xmlns="http://www.w3.org/2000/svg" xmlns:xlink="http://www.w3.org/1999/xlink" version="1.1"><rect x="0" y="0" width="900" height="600" fill="#FFFFFF"></rect><path d="M192 0L198.8 10C205.7 20 219.3 40 222.3 60C225.3 80 217.7 100 241 120C264.3 140 318.7 160 325.2 180C331.7 200 290.3 220 265.8 240C241.3 260 233.7 280 239.2 300C244.7 320 263.3 340 261.8 360C260.3 380 238.7 400 243.2 420C247.7 440 278.3 460 294.7 480C311 500 313 520 308.2 540C303.3 560 291.7 580 285.8 590L280 600L0 600L0 590C0 580 0 560 0 540C0 520 0 500 0 480C0 460 0 440 0 420C0 400 0 380 0 360C0 340 0 320 0 300C0 280 0 260 0 240C0 220 0 200 0 180C0 160 0 140 0 120C0 100 0 80 0 60C0 40 0 20 0 10L0 0Z" fill="#ffcdd2" stroke-linecap="round" stroke-linejoin="miter"></path></svg>